<svg width="25" height="25" viewBox="0 0 25 25" fill="none" xmlns="http://www.w3.org/2000/svg">
<path d="M11.2158 17.2795C11.0845 17.2798 10.9545 17.2542 10.8332 17.204C10.7119 17.1539 10.6016 17.0804 10.5088 16.9875L6.2668 12.7445C6.17123 12.6524 6.09497 12.5421 6.04248 12.4201C5.98998 12.2981 5.9623 12.1669 5.96106 12.0342C5.95981 11.9014 5.98502 11.7697 6.03521 11.6468C6.08541 11.5238 6.15958 11.4121 6.25341 11.3182C6.34723 11.2242 6.45883 11.1499 6.58169 11.0995C6.70455 11.0491 6.83621 11.0237 6.96899 11.0248C7.10177 11.0259 7.23301 11.0534 7.35505 11.1057C7.47709 11.158 7.58749 11.2341 7.6798 11.3295L11.2148 14.8645L17.5798 8.50155C17.7673 8.31391 18.0217 8.20844 18.2869 8.20834C18.5522 8.20825 18.8067 8.31354 18.9943 8.50105C19.1819 8.68855 19.2874 8.94292 19.2875 9.20819C19.2876 9.47346 19.1823 9.72791 18.9948 9.91555L11.9228 16.9875C11.83 17.0804 11.7197 17.1539 11.5984 17.204C11.4771 17.2542 11.3471 17.2798 11.2158 17.2795Z" fill="#2FAB73"/>
</svg>
